<mxfile host="app.diagrams.net" modified="2022-03-02T08:50:44.780Z" agent="5.0 (Windows NT 10.0; Win64; x64) AppleWebKit/537.36 (KHTML, like Gecko) Chrome/98.0.4758.102 Safari/537.36" etag="le_DpFmF3ZXx1WLfPQIx" version="16.6.1" type="github">
  <diagram id="C5RBs43oDa-KdzZeNtuy" name="Page-1">
    <mxGraphModel dx="989" dy="521" grid="1" gridSize="10" guides="1" tooltips="1" connect="1" arrows="1" fold="1" page="1" pageScale="1" pageWidth="827" pageHeight="1169" math="0" shadow="0">
      <root>
        <mxCell id="WIyWlLk6GJQsqaUBKTNV-0" />
        <mxCell id="WIyWlLk6GJQsqaUBKTNV-1" parent="WIyWlLk6GJQsqaUBKTNV-0" />
        <mxCell id="1VWSUXiwOZT1shFSJKdf-57" value="Mobile Client" style="html=1;align=left;verticalAlign=top;" vertex="1" parent="WIyWlLk6GJQsqaUBKTNV-1">
          <mxGeometry x="200" y="710" width="300" height="160" as="geometry" />
        </mxCell>
        <mxCell id="1VWSUXiwOZT1shFSJKdf-56" value="GAME SERVER" style="html=1;align=left;verticalAlign=top;" vertex="1" parent="WIyWlLk6GJQsqaUBKTNV-1">
          <mxGeometry x="200" y="437.5" width="800" height="250" as="geometry" />
        </mxCell>
        <mxCell id="1VWSUXiwOZT1shFSJKdf-39" value="ROOM" style="html=1;align=left;verticalAlign=top;" vertex="1" parent="WIyWlLk6GJQsqaUBKTNV-1">
          <mxGeometry x="590" y="515" width="140" height="125" as="geometry" />
        </mxCell>
        <mxCell id="1VWSUXiwOZT1shFSJKdf-1" value="" style="shape=module;align=left;spacingLeft=20;align=center;verticalAlign=top;" vertex="1" parent="WIyWlLk6GJQsqaUBKTNV-1">
          <mxGeometry x="690" y="520" width="32" height="50" as="geometry" />
        </mxCell>
        <mxCell id="zkfFHV4jXpPFQw0GAbJ--0" value="GAME" style="swimlane;fontStyle=2;align=center;verticalAlign=top;childLayout=stackLayout;horizontal=1;startSize=26;horizontalStack=0;resizeParent=1;resizeLast=0;collapsible=1;marginBottom=0;rounded=0;shadow=0;strokeWidth=1;" parent="WIyWlLk6GJQsqaUBKTNV-1" vertex="1" collapsed="1">
          <mxGeometry x="45" y="70" width="160" height="26" as="geometry">
            <mxRectangle x="140" y="120" width="160" height="138" as="alternateBounds" />
          </mxGeometry>
        </mxCell>
        <mxCell id="zkfFHV4jXpPFQw0GAbJ--1" value="Name" style="text;align=left;verticalAlign=top;spacingLeft=4;spacingRight=4;overflow=hidden;rotatable=0;points=[[0,0.5],[1,0.5]];portConstraint=eastwest;" parent="zkfFHV4jXpPFQw0GAbJ--0" vertex="1">
          <mxGeometry y="26" width="160" height="26" as="geometry" />
        </mxCell>
        <mxCell id="zkfFHV4jXpPFQw0GAbJ--2" value="Phone Number" style="text;align=left;verticalAlign=top;spacingLeft=4;spacingRight=4;overflow=hidden;rotatable=0;points=[[0,0.5],[1,0.5]];portConstraint=eastwest;rounded=0;shadow=0;html=0;" parent="zkfFHV4jXpPFQw0GAbJ--0" vertex="1">
          <mxGeometry y="52" width="160" height="26" as="geometry" />
        </mxCell>
        <mxCell id="zkfFHV4jXpPFQw0GAbJ--3" value="Email Address" style="text;align=left;verticalAlign=top;spacingLeft=4;spacingRight=4;overflow=hidden;rotatable=0;points=[[0,0.5],[1,0.5]];portConstraint=eastwest;rounded=0;shadow=0;html=0;" parent="zkfFHV4jXpPFQw0GAbJ--0" vertex="1">
          <mxGeometry y="78" width="160" height="26" as="geometry" />
        </mxCell>
        <mxCell id="zkfFHV4jXpPFQw0GAbJ--4" value="" style="line;html=1;strokeWidth=1;align=left;verticalAlign=middle;spacingTop=-1;spacingLeft=3;spacingRight=3;rotatable=0;labelPosition=right;points=[];portConstraint=eastwest;" parent="zkfFHV4jXpPFQw0GAbJ--0" vertex="1">
          <mxGeometry y="104" width="160" height="8" as="geometry" />
        </mxCell>
        <mxCell id="zkfFHV4jXpPFQw0GAbJ--5" value="Purchase Parking Pass" style="text;align=left;verticalAlign=top;spacingLeft=4;spacingRight=4;overflow=hidden;rotatable=0;points=[[0,0.5],[1,0.5]];portConstraint=eastwest;" parent="zkfFHV4jXpPFQw0GAbJ--0" vertex="1">
          <mxGeometry y="112" width="160" height="26" as="geometry" />
        </mxCell>
        <mxCell id="sU_c6Er136trvMsLBxcg-8" style="edgeStyle=orthogonalEdgeStyle;rounded=0;orthogonalLoop=1;jettySize=auto;html=1;exitX=0.5;exitY=1;exitDx=0;exitDy=0;entryX=0.5;entryY=0;entryDx=0;entryDy=0;endArrow=none;endFill=0;" parent="WIyWlLk6GJQsqaUBKTNV-1" source="zkfFHV4jXpPFQw0GAbJ--17" target="sU_c6Er136trvMsLBxcg-0" edge="1">
          <mxGeometry relative="1" as="geometry" />
        </mxCell>
        <mxCell id="sU_c6Er136trvMsLBxcg-32" style="edgeStyle=orthogonalEdgeStyle;rounded=0;orthogonalLoop=1;jettySize=auto;html=1;entryX=0.5;entryY=0;entryDx=0;entryDy=0;endArrow=none;endFill=0;startArrow=block;startFill=0;exitX=0.5;exitY=1;exitDx=0;exitDy=0;" parent="WIyWlLk6GJQsqaUBKTNV-1" source="sU_c6Er136trvMsLBxcg-0" target="sU_c6Er136trvMsLBxcg-27" edge="1">
          <mxGeometry relative="1" as="geometry">
            <mxPoint x="435" y="210" as="sourcePoint" />
          </mxGeometry>
        </mxCell>
        <mxCell id="zkfFHV4jXpPFQw0GAbJ--17" value="LEVEL" style="swimlane;fontStyle=0;align=center;verticalAlign=top;childLayout=stackLayout;horizontal=1;startSize=26;horizontalStack=0;resizeParent=1;resizeLast=0;collapsible=1;marginBottom=0;rounded=0;shadow=0;strokeWidth=1;" parent="WIyWlLk6GJQsqaUBKTNV-1" vertex="1" collapsed="1">
          <mxGeometry x="345" y="70" width="160" height="26" as="geometry">
            <mxRectangle x="508" y="110" width="160" height="70" as="alternateBounds" />
          </mxGeometry>
        </mxCell>
        <mxCell id="zkfFHV4jXpPFQw0GAbJ--23" value="" style="line;html=1;strokeWidth=1;align=left;verticalAlign=middle;spacingTop=-1;spacingLeft=3;spacingRight=3;rotatable=0;labelPosition=right;points=[];portConstraint=eastwest;" parent="zkfFHV4jXpPFQw0GAbJ--17" vertex="1">
          <mxGeometry y="26" width="160" height="24" as="geometry" />
        </mxCell>
        <mxCell id="zkfFHV4jXpPFQw0GAbJ--26" value="" style="endArrow=none;shadow=0;strokeWidth=1;rounded=0;endFill=0;edgeStyle=elbowEdgeStyle;elbow=vertical;" parent="WIyWlLk6GJQsqaUBKTNV-1" source="zkfFHV4jXpPFQw0GAbJ--0" target="zkfFHV4jXpPFQw0GAbJ--17" edge="1">
          <mxGeometry x="0.5" y="41" relative="1" as="geometry">
            <mxPoint x="255" y="152" as="sourcePoint" />
            <mxPoint x="415" y="152" as="targetPoint" />
            <mxPoint x="-40" y="32" as="offset" />
          </mxGeometry>
        </mxCell>
        <mxCell id="zkfFHV4jXpPFQw0GAbJ--27" value="1" style="resizable=0;align=left;verticalAlign=bottom;labelBackgroundColor=none;fontSize=12;" parent="zkfFHV4jXpPFQw0GAbJ--26" connectable="0" vertex="1">
          <mxGeometry x="-1" relative="1" as="geometry">
            <mxPoint y="4" as="offset" />
          </mxGeometry>
        </mxCell>
        <mxCell id="zkfFHV4jXpPFQw0GAbJ--28" value="1..*" style="resizable=0;align=right;verticalAlign=bottom;labelBackgroundColor=none;fontSize=12;" parent="zkfFHV4jXpPFQw0GAbJ--26" connectable="0" vertex="1">
          <mxGeometry x="1" relative="1" as="geometry">
            <mxPoint x="-7" y="4" as="offset" />
          </mxGeometry>
        </mxCell>
        <mxCell id="sU_c6Er136trvMsLBxcg-21" style="edgeStyle=orthogonalEdgeStyle;rounded=0;orthogonalLoop=1;jettySize=auto;html=1;exitX=1;exitY=0.5;exitDx=0;exitDy=0;entryX=0.5;entryY=0;entryDx=0;entryDy=0;endArrow=none;endFill=0;" parent="WIyWlLk6GJQsqaUBKTNV-1" source="sU_c6Er136trvMsLBxcg-0" target="sU_c6Er136trvMsLBxcg-3" edge="1">
          <mxGeometry relative="1" as="geometry" />
        </mxCell>
        <mxCell id="sU_c6Er136trvMsLBxcg-22" style="edgeStyle=orthogonalEdgeStyle;rounded=0;orthogonalLoop=1;jettySize=auto;html=1;exitX=0;exitY=0.5;exitDx=0;exitDy=0;entryX=0.5;entryY=0;entryDx=0;entryDy=0;endArrow=none;endFill=0;" parent="WIyWlLk6GJQsqaUBKTNV-1" source="sU_c6Er136trvMsLBxcg-0" target="sU_c6Er136trvMsLBxcg-6" edge="1">
          <mxGeometry relative="1" as="geometry" />
        </mxCell>
        <mxCell id="sU_c6Er136trvMsLBxcg-0" value="ROOM" style="swimlane;fontStyle=0;align=center;verticalAlign=top;childLayout=stackLayout;horizontal=1;startSize=26;horizontalStack=0;resizeParent=1;resizeLast=0;collapsible=1;marginBottom=0;rounded=0;shadow=0;strokeWidth=1;" parent="WIyWlLk6GJQsqaUBKTNV-1" vertex="1" collapsed="1">
          <mxGeometry x="340" y="180" width="170" height="26" as="geometry">
            <mxRectangle x="465" y="220" width="155" height="120" as="alternateBounds" />
          </mxGeometry>
        </mxCell>
        <mxCell id="sU_c6Er136trvMsLBxcg-1" value="bool isSpecial" style="text;align=left;verticalAlign=top;spacingLeft=4;spacingRight=4;overflow=hidden;rotatable=0;points=[[0,0.5],[1,0.5]];portConstraint=eastwest;" parent="sU_c6Er136trvMsLBxcg-0" vertex="1">
          <mxGeometry y="26" width="155" height="26" as="geometry" />
        </mxCell>
        <mxCell id="sU_c6Er136trvMsLBxcg-2" value="" style="line;html=1;strokeWidth=1;align=left;verticalAlign=middle;spacingTop=-1;spacingLeft=3;spacingRight=3;rotatable=0;labelPosition=right;points=[];portConstraint=eastwest;" parent="sU_c6Er136trvMsLBxcg-0" vertex="1">
          <mxGeometry y="52" width="155" height="58" as="geometry" />
        </mxCell>
        <mxCell id="sU_c6Er136trvMsLBxcg-3" value="OBJECT" style="swimlane;fontStyle=0;align=center;verticalAlign=top;childLayout=stackLayout;horizontal=1;startSize=26;horizontalStack=0;resizeParent=1;resizeLast=0;collapsible=1;marginBottom=0;rounded=0;shadow=0;strokeWidth=1;" parent="WIyWlLk6GJQsqaUBKTNV-1" vertex="1" collapsed="1">
          <mxGeometry x="617" y="370" width="170" height="26" as="geometry">
            <mxRectangle x="667" y="370" width="160" height="70" as="alternateBounds" />
          </mxGeometry>
        </mxCell>
        <mxCell id="sU_c6Er136trvMsLBxcg-5" value="" style="line;html=1;strokeWidth=1;align=left;verticalAlign=middle;spacingTop=-1;spacingLeft=3;spacingRight=3;rotatable=0;labelPosition=right;points=[];portConstraint=eastwest;" parent="sU_c6Er136trvMsLBxcg-3" vertex="1">
          <mxGeometry y="26" width="160" height="8" as="geometry" />
        </mxCell>
        <mxCell id="sU_c6Er136trvMsLBxcg-15" style="edgeStyle=orthogonalEdgeStyle;rounded=0;orthogonalLoop=1;jettySize=auto;html=1;exitX=1;exitY=0.5;exitDx=0;exitDy=0;entryX=0;entryY=0.5;entryDx=0;entryDy=0;endArrow=none;endFill=0;" parent="WIyWlLk6GJQsqaUBKTNV-1" source="sU_c6Er136trvMsLBxcg-6" target="sU_c6Er136trvMsLBxcg-12" edge="1">
          <mxGeometry relative="1" as="geometry" />
        </mxCell>
        <mxCell id="sU_c6Er136trvMsLBxcg-6" value="PLAYER" style="swimlane;fontStyle=0;align=center;verticalAlign=top;childLayout=stackLayout;horizontal=1;startSize=26;horizontalStack=0;resizeParent=1;resizeLast=0;collapsible=1;marginBottom=0;rounded=0;shadow=0;strokeWidth=1;" parent="WIyWlLk6GJQsqaUBKTNV-1" vertex="1" collapsed="1">
          <mxGeometry x="40" y="370" width="170" height="26" as="geometry">
            <mxRectangle x="270" y="370" width="160" height="70" as="alternateBounds" />
          </mxGeometry>
        </mxCell>
        <mxCell id="sU_c6Er136trvMsLBxcg-7" value="" style="line;html=1;strokeWidth=1;align=left;verticalAlign=middle;spacingTop=-1;spacingLeft=3;spacingRight=3;rotatable=0;labelPosition=right;points=[];portConstraint=eastwest;" parent="sU_c6Er136trvMsLBxcg-6" vertex="1">
          <mxGeometry y="26" width="160" height="8" as="geometry" />
        </mxCell>
        <mxCell id="sU_c6Er136trvMsLBxcg-9" value="" style="resizable=0;align=right;verticalAlign=bottom;labelBackgroundColor=none;fontSize=12;" parent="WIyWlLk6GJQsqaUBKTNV-1" connectable="0" vertex="1">
          <mxGeometry x="325" y="120.00333333333339" as="geometry">
            <mxPoint x="216" y="62" as="offset" />
          </mxGeometry>
        </mxCell>
        <mxCell id="sU_c6Er136trvMsLBxcg-10" value="1" style="text;html=1;align=center;verticalAlign=middle;resizable=0;points=[];autosize=1;strokeColor=none;fillColor=none;" parent="WIyWlLk6GJQsqaUBKTNV-1" vertex="1">
          <mxGeometry x="425" y="96" width="20" height="20" as="geometry" />
        </mxCell>
        <mxCell id="sU_c6Er136trvMsLBxcg-11" value="1..*" style="text;html=1;align=center;verticalAlign=middle;resizable=0;points=[];autosize=1;strokeColor=none;fillColor=none;" parent="WIyWlLk6GJQsqaUBKTNV-1" vertex="1">
          <mxGeometry x="425" y="150" width="30" height="20" as="geometry" />
        </mxCell>
        <mxCell id="sU_c6Er136trvMsLBxcg-16" style="edgeStyle=orthogonalEdgeStyle;rounded=0;orthogonalLoop=1;jettySize=auto;html=1;exitX=1;exitY=0.5;exitDx=0;exitDy=0;entryX=0;entryY=0.5;entryDx=0;entryDy=0;endArrow=none;endFill=0;" parent="WIyWlLk6GJQsqaUBKTNV-1" source="sU_c6Er136trvMsLBxcg-12" target="sU_c6Er136trvMsLBxcg-3" edge="1">
          <mxGeometry relative="1" as="geometry" />
        </mxCell>
        <mxCell id="sU_c6Er136trvMsLBxcg-12" value="INVENTORY" style="swimlane;fontStyle=0;align=center;verticalAlign=top;childLayout=stackLayout;horizontal=1;startSize=26;horizontalStack=0;resizeParent=1;resizeLast=0;collapsible=1;marginBottom=0;rounded=0;shadow=0;strokeWidth=1;" parent="WIyWlLk6GJQsqaUBKTNV-1" vertex="1" collapsed="1">
          <mxGeometry x="340" y="370" width="170" height="26" as="geometry">
            <mxRectangle x="470" y="370" width="160" height="70" as="alternateBounds" />
          </mxGeometry>
        </mxCell>
        <mxCell id="sU_c6Er136trvMsLBxcg-13" value="" style="line;html=1;strokeWidth=1;align=left;verticalAlign=middle;spacingTop=-1;spacingLeft=3;spacingRight=3;rotatable=0;labelPosition=right;points=[];portConstraint=eastwest;" parent="sU_c6Er136trvMsLBxcg-12" vertex="1">
          <mxGeometry y="26" width="160" height="8" as="geometry" />
        </mxCell>
        <mxCell id="sU_c6Er136trvMsLBxcg-17" value="0..1" style="text;html=1;align=center;verticalAlign=middle;resizable=0;points=[];autosize=1;strokeColor=none;fillColor=none;" parent="WIyWlLk6GJQsqaUBKTNV-1" vertex="1">
          <mxGeometry x="505" y="360" width="40" height="20" as="geometry" />
        </mxCell>
        <mxCell id="sU_c6Er136trvMsLBxcg-18" value="0..5" style="text;html=1;align=center;verticalAlign=middle;resizable=0;points=[];autosize=1;strokeColor=none;fillColor=none;" parent="WIyWlLk6GJQsqaUBKTNV-1" vertex="1">
          <mxGeometry x="565" y="360" width="40" height="20" as="geometry" />
        </mxCell>
        <mxCell id="sU_c6Er136trvMsLBxcg-19" value="1" style="text;html=1;align=center;verticalAlign=middle;resizable=0;points=[];autosize=1;strokeColor=none;fillColor=none;" parent="WIyWlLk6GJQsqaUBKTNV-1" vertex="1">
          <mxGeometry x="240" y="360" width="20" height="20" as="geometry" />
        </mxCell>
        <mxCell id="sU_c6Er136trvMsLBxcg-20" value="1" style="text;html=1;align=center;verticalAlign=middle;resizable=0;points=[];autosize=1;strokeColor=none;fillColor=none;" parent="WIyWlLk6GJQsqaUBKTNV-1" vertex="1">
          <mxGeometry x="310" y="360" width="20" height="20" as="geometry" />
        </mxCell>
        <mxCell id="sU_c6Er136trvMsLBxcg-23" value="1" style="text;html=1;align=center;verticalAlign=middle;resizable=0;points=[];autosize=1;strokeColor=none;fillColor=none;" parent="WIyWlLk6GJQsqaUBKTNV-1" vertex="1">
          <mxGeometry x="315" y="150" width="20" height="20" as="geometry" />
        </mxCell>
        <mxCell id="sU_c6Er136trvMsLBxcg-24" value="*" style="text;html=1;align=center;verticalAlign=middle;resizable=0;points=[];autosize=1;strokeColor=none;fillColor=none;" parent="WIyWlLk6GJQsqaUBKTNV-1" vertex="1">
          <mxGeometry x="160" y="350" width="20" height="20" as="geometry" />
        </mxCell>
        <mxCell id="sU_c6Er136trvMsLBxcg-25" value="1" style="text;html=1;align=center;verticalAlign=middle;resizable=0;points=[];autosize=1;strokeColor=none;fillColor=none;" parent="WIyWlLk6GJQsqaUBKTNV-1" vertex="1">
          <mxGeometry x="510" y="160" width="20" height="20" as="geometry" />
        </mxCell>
        <mxCell id="sU_c6Er136trvMsLBxcg-26" value="*" style="text;html=1;align=center;verticalAlign=middle;resizable=0;points=[];autosize=1;strokeColor=none;fillColor=none;" parent="WIyWlLk6GJQsqaUBKTNV-1" vertex="1">
          <mxGeometry x="697" y="350" width="20" height="20" as="geometry" />
        </mxCell>
        <mxCell id="sU_c6Er136trvMsLBxcg-27" value="SPECIAL ROOM" style="swimlane;fontStyle=0;align=center;verticalAlign=top;childLayout=stackLayout;horizontal=1;startSize=26;horizontalStack=0;resizeParent=1;resizeLast=0;collapsible=1;marginBottom=0;rounded=0;shadow=0;strokeWidth=1;" parent="WIyWlLk6GJQsqaUBKTNV-1" vertex="1" collapsed="1">
          <mxGeometry x="345" y="260" width="160" height="26" as="geometry">
            <mxRectangle x="730" y="73" width="200" height="100" as="alternateBounds" />
          </mxGeometry>
        </mxCell>
        <mxCell id="sU_c6Er136trvMsLBxcg-28" value="" style="line;html=1;strokeWidth=1;align=left;verticalAlign=middle;spacingTop=-1;spacingLeft=3;spacingRight=3;rotatable=0;labelPosition=right;points=[];portConstraint=eastwest;" parent="sU_c6Er136trvMsLBxcg-27" vertex="1">
          <mxGeometry y="26" width="200" height="64" as="geometry" />
        </mxCell>
        <mxCell id="1VWSUXiwOZT1shFSJKdf-8" value="MUD" style="rounded=0;whiteSpace=wrap;html=1;align=left;verticalAlign=top;" vertex="1" parent="WIyWlLk6GJQsqaUBKTNV-1">
          <mxGeometry x="1080" y="160" width="280" height="360" as="geometry" />
        </mxCell>
        <mxCell id="1VWSUXiwOZT1shFSJKdf-9" style="edgeStyle=none;rounded=0;orthogonalLoop=1;jettySize=auto;html=1;entryX=0;entryY=0.5;entryDx=0;entryDy=0;startArrow=none;startFill=0;endArrow=none;endFill=0;" edge="1" parent="WIyWlLk6GJQsqaUBKTNV-1" target="1VWSUXiwOZT1shFSJKdf-20">
          <mxGeometry relative="1" as="geometry">
            <mxPoint x="990" y="325" as="sourcePoint" />
          </mxGeometry>
        </mxCell>
        <mxCell id="1VWSUXiwOZT1shFSJKdf-10" style="edgeStyle=none;rounded=0;orthogonalLoop=1;jettySize=auto;html=1;entryX=0;entryY=0.5;entryDx=0;entryDy=0;startArrow=none;startFill=0;endArrow=none;endFill=0;" edge="1" parent="WIyWlLk6GJQsqaUBKTNV-1" target="1VWSUXiwOZT1shFSJKdf-17">
          <mxGeometry relative="1" as="geometry">
            <mxPoint x="990" y="325" as="sourcePoint" />
          </mxGeometry>
        </mxCell>
        <mxCell id="1VWSUXiwOZT1shFSJKdf-11" style="edgeStyle=none;rounded=0;orthogonalLoop=1;jettySize=auto;html=1;entryX=0;entryY=0.5;entryDx=0;entryDy=0;startArrow=none;startFill=0;endArrow=none;endFill=0;" edge="1" parent="WIyWlLk6GJQsqaUBKTNV-1" source="1VWSUXiwOZT1shFSJKdf-15" target="1VWSUXiwOZT1shFSJKdf-18">
          <mxGeometry relative="1" as="geometry" />
        </mxCell>
        <mxCell id="1VWSUXiwOZT1shFSJKdf-12" style="edgeStyle=none;rounded=0;orthogonalLoop=1;jettySize=auto;html=1;entryX=0;entryY=0.5;entryDx=0;entryDy=0;startArrow=none;startFill=0;endArrow=none;endFill=0;" edge="1" parent="WIyWlLk6GJQsqaUBKTNV-1" target="1VWSUXiwOZT1shFSJKdf-21">
          <mxGeometry relative="1" as="geometry">
            <mxPoint x="990" y="325" as="sourcePoint" />
          </mxGeometry>
        </mxCell>
        <mxCell id="1VWSUXiwOZT1shFSJKdf-13" style="edgeStyle=none;rounded=0;orthogonalLoop=1;jettySize=auto;html=1;entryX=0;entryY=0.5;entryDx=0;entryDy=0;startArrow=none;startFill=0;endArrow=none;endFill=0;" edge="1" parent="WIyWlLk6GJQsqaUBKTNV-1" target="1VWSUXiwOZT1shFSJKdf-22">
          <mxGeometry relative="1" as="geometry">
            <mxPoint x="990" y="325" as="sourcePoint" />
          </mxGeometry>
        </mxCell>
        <mxCell id="1VWSUXiwOZT1shFSJKdf-14" style="edgeStyle=none;rounded=0;orthogonalLoop=1;jettySize=auto;html=1;entryX=0;entryY=0.5;entryDx=0;entryDy=0;startArrow=none;startFill=0;endArrow=none;endFill=0;" edge="1" parent="WIyWlLk6GJQsqaUBKTNV-1" target="1VWSUXiwOZT1shFSJKdf-23">
          <mxGeometry relative="1" as="geometry">
            <mxPoint x="990" y="325" as="sourcePoint" />
          </mxGeometry>
        </mxCell>
        <mxCell id="1VWSUXiwOZT1shFSJKdf-15" value="Actor" style="shape=umlActor;verticalLabelPosition=bottom;verticalAlign=top;html=1;outlineConnect=0;" vertex="1" parent="WIyWlLk6GJQsqaUBKTNV-1">
          <mxGeometry x="960" y="295" width="30" height="60" as="geometry" />
        </mxCell>
        <mxCell id="1VWSUXiwOZT1shFSJKdf-16" value="Join Game" style="ellipse;whiteSpace=wrap;html=1;" vertex="1" parent="WIyWlLk6GJQsqaUBKTNV-1">
          <mxGeometry x="1150" y="190" width="130" height="30" as="geometry" />
        </mxCell>
        <mxCell id="1VWSUXiwOZT1shFSJKdf-17" value="Take Object" style="ellipse;whiteSpace=wrap;html=1;" vertex="1" parent="WIyWlLk6GJQsqaUBKTNV-1">
          <mxGeometry x="1150" y="270" width="130" height="30" as="geometry" />
        </mxCell>
        <mxCell id="1VWSUXiwOZT1shFSJKdf-18" value="Lay Down Object" style="ellipse;whiteSpace=wrap;html=1;" vertex="1" parent="WIyWlLk6GJQsqaUBKTNV-1">
          <mxGeometry x="1150" y="310" width="130" height="30" as="geometry" />
        </mxCell>
        <mxCell id="1VWSUXiwOZT1shFSJKdf-19" value="" style="rounded=0;orthogonalLoop=1;jettySize=auto;html=1;startArrow=none;startFill=0;endArrow=none;endFill=0;entryX=0;entryY=0.5;entryDx=0;entryDy=0;" edge="1" parent="WIyWlLk6GJQsqaUBKTNV-1" target="1VWSUXiwOZT1shFSJKdf-16">
          <mxGeometry relative="1" as="geometry">
            <mxPoint x="990" y="325" as="sourcePoint" />
          </mxGeometry>
        </mxCell>
        <mxCell id="1VWSUXiwOZT1shFSJKdf-20" value="Travel Room" style="ellipse;whiteSpace=wrap;html=1;" vertex="1" parent="WIyWlLk6GJQsqaUBKTNV-1">
          <mxGeometry x="1150" y="230" width="130" height="30" as="geometry" />
        </mxCell>
        <mxCell id="1VWSUXiwOZT1shFSJKdf-21" value="Trade with player" style="ellipse;whiteSpace=wrap;html=1;" vertex="1" parent="WIyWlLk6GJQsqaUBKTNV-1">
          <mxGeometry x="1150" y="350" width="130" height="30" as="geometry" />
        </mxCell>
        <mxCell id="1VWSUXiwOZT1shFSJKdf-22" value="Check Inventory" style="ellipse;whiteSpace=wrap;html=1;" vertex="1" parent="WIyWlLk6GJQsqaUBKTNV-1">
          <mxGeometry x="1150" y="390" width="130" height="30" as="geometry" />
        </mxCell>
        <mxCell id="1VWSUXiwOZT1shFSJKdf-23" value="Talk with players" style="ellipse;whiteSpace=wrap;html=1;" vertex="1" parent="WIyWlLk6GJQsqaUBKTNV-1">
          <mxGeometry x="1150" y="430" width="130" height="30" as="geometry" />
        </mxCell>
        <mxCell id="1VWSUXiwOZT1shFSJKdf-24" value="Exit Game" style="ellipse;whiteSpace=wrap;html=1;opacity=30;" vertex="1" parent="WIyWlLk6GJQsqaUBKTNV-1">
          <mxGeometry x="1150" y="470" width="130" height="30" as="geometry" />
        </mxCell>
        <mxCell id="1VWSUXiwOZT1shFSJKdf-35" value="LEVEL" style="html=1;align=left;verticalAlign=top;" vertex="1" parent="WIyWlLk6GJQsqaUBKTNV-1">
          <mxGeometry x="325" y="515" width="145" height="125" as="geometry" />
        </mxCell>
        <mxCell id="1VWSUXiwOZT1shFSJKdf-42" value="" style="shape=module;align=left;spacingLeft=20;align=center;verticalAlign=top;" vertex="1" parent="WIyWlLk6GJQsqaUBKTNV-1">
          <mxGeometry x="430" y="520" width="32" height="50" as="geometry" />
        </mxCell>
        <mxCell id="1VWSUXiwOZT1shFSJKdf-51" value="PLAYER" style="html=1;align=left;verticalAlign=top;" vertex="1" parent="WIyWlLk6GJQsqaUBKTNV-1">
          <mxGeometry x="820" y="512.5" width="140" height="127.5" as="geometry" />
        </mxCell>
        <mxCell id="1VWSUXiwOZT1shFSJKdf-52" value="" style="shape=module;align=left;spacingLeft=20;align=center;verticalAlign=top;" vertex="1" parent="WIyWlLk6GJQsqaUBKTNV-1">
          <mxGeometry x="920" y="517.5" width="32" height="50" as="geometry" />
        </mxCell>
        <mxCell id="1VWSUXiwOZT1shFSJKdf-61" value="LR" style="html=1;" vertex="1" parent="WIyWlLk6GJQsqaUBKTNV-1">
          <mxGeometry x="455" y="585" width="30" height="30" as="geometry" />
        </mxCell>
        <mxCell id="1VWSUXiwOZT1shFSJKdf-62" value="RL" style="html=1;" vertex="1" parent="WIyWlLk6GJQsqaUBKTNV-1">
          <mxGeometry x="575" y="585" width="30" height="30" as="geometry" />
        </mxCell>
        <mxCell id="1VWSUXiwOZT1shFSJKdf-66" value="RP" style="html=1;" vertex="1" parent="WIyWlLk6GJQsqaUBKTNV-1">
          <mxGeometry x="717" y="585" width="30" height="30" as="geometry" />
        </mxCell>
        <mxCell id="1VWSUXiwOZT1shFSJKdf-67" value="LR" style="html=1;" vertex="1" parent="WIyWlLk6GJQsqaUBKTNV-1">
          <mxGeometry x="462" y="590" width="30" height="30" as="geometry" />
        </mxCell>
        <mxCell id="1VWSUXiwOZT1shFSJKdf-68" value="RP" style="html=1;" vertex="1" parent="WIyWlLk6GJQsqaUBKTNV-1">
          <mxGeometry x="722" y="590" width="30" height="30" as="geometry" />
        </mxCell>
        <mxCell id="1VWSUXiwOZT1shFSJKdf-69" value="PR" style="html=1;" vertex="1" parent="WIyWlLk6GJQsqaUBKTNV-1">
          <mxGeometry x="810" y="590" width="30" height="30" as="geometry" />
        </mxCell>
        <mxCell id="1VWSUXiwOZT1shFSJKdf-70" value="" style="endArrow=none;html=1;rounded=0;" edge="1" parent="WIyWlLk6GJQsqaUBKTNV-1" source="1VWSUXiwOZT1shFSJKdf-67" target="1VWSUXiwOZT1shFSJKdf-62">
          <mxGeometry width="50" height="50" relative="1" as="geometry">
            <mxPoint x="550" y="670" as="sourcePoint" />
            <mxPoint x="600" y="620" as="targetPoint" />
          </mxGeometry>
        </mxCell>
        <mxCell id="1VWSUXiwOZT1shFSJKdf-71" value="" style="endArrow=none;html=1;rounded=0;" edge="1" parent="WIyWlLk6GJQsqaUBKTNV-1" source="1VWSUXiwOZT1shFSJKdf-68" target="1VWSUXiwOZT1shFSJKdf-69">
          <mxGeometry width="50" height="50" relative="1" as="geometry">
            <mxPoint x="550" y="670" as="sourcePoint" />
            <mxPoint x="600" y="620" as="targetPoint" />
          </mxGeometry>
        </mxCell>
        <mxCell id="1VWSUXiwOZT1shFSJKdf-72" value="" style="shape=module;align=left;spacingLeft=20;align=center;verticalAlign=top;" vertex="1" parent="WIyWlLk6GJQsqaUBKTNV-1">
          <mxGeometry x="958" y="450" width="32" height="50" as="geometry" />
        </mxCell>
        <mxCell id="1VWSUXiwOZT1shFSJKdf-73" value="" style="shape=module;align=left;spacingLeft=20;align=center;verticalAlign=top;" vertex="1" parent="WIyWlLk6GJQsqaUBKTNV-1">
          <mxGeometry x="460" y="720" width="32" height="50" as="geometry" />
        </mxCell>
        <mxCell id="1VWSUXiwOZT1shFSJKdf-76" style="edgeStyle=orthogonalEdgeStyle;rounded=0;orthogonalLoop=1;jettySize=auto;html=1;endArrow=none;endFill=0;" edge="1" parent="WIyWlLk6GJQsqaUBKTNV-1" source="1VWSUXiwOZT1shFSJKdf-74" target="1VWSUXiwOZT1shFSJKdf-75">
          <mxGeometry relative="1" as="geometry" />
        </mxCell>
        <mxCell id="1VWSUXiwOZT1shFSJKdf-74" value="MG" style="html=1;" vertex="1" parent="WIyWlLk6GJQsqaUBKTNV-1">
          <mxGeometry x="485" y="782.5" width="30" height="30" as="geometry" />
        </mxCell>
        <mxCell id="1VWSUXiwOZT1shFSJKdf-75" value="GM" style="html=1;" vertex="1" parent="WIyWlLk6GJQsqaUBKTNV-1">
          <mxGeometry x="565" y="670" width="30" height="30" as="geometry" />
        </mxCell>
        <mxCell id="1VWSUXiwOZT1shFSJKdf-77" value="GM" style="html=1;" vertex="1" parent="WIyWlLk6GJQsqaUBKTNV-1">
          <mxGeometry x="560" y="665" width="30" height="30" as="geometry" />
        </mxCell>
        <mxCell id="1VWSUXiwOZT1shFSJKdf-85" value="PLAYER" style="html=1;align=left;verticalAlign=top;" vertex="1" parent="WIyWlLk6GJQsqaUBKTNV-1">
          <mxGeometry x="620" y="1000" width="380" height="250" as="geometry" />
        </mxCell>
        <mxCell id="1VWSUXiwOZT1shFSJKdf-86" value="" style="shape=module;align=left;spacingLeft=20;align=center;verticalAlign=top;" vertex="1" parent="WIyWlLk6GJQsqaUBKTNV-1">
          <mxGeometry x="960" y="1005" width="32" height="50" as="geometry" />
        </mxCell>
        <mxCell id="1VWSUXiwOZT1shFSJKdf-87" value="" style="html=1;" vertex="1" parent="WIyWlLk6GJQsqaUBKTNV-1">
          <mxGeometry x="607" y="1110" width="30" height="30" as="geometry" />
        </mxCell>
        <mxCell id="1VWSUXiwOZT1shFSJKdf-99" style="edgeStyle=orthogonalEdgeStyle;rounded=0;orthogonalLoop=1;jettySize=auto;html=1;exitX=1;exitY=0.5;exitDx=0;exitDy=0;endArrow=open;endFill=0;" edge="1" parent="WIyWlLk6GJQsqaUBKTNV-1" source="1VWSUXiwOZT1shFSJKdf-88" target="1VWSUXiwOZT1shFSJKdf-92">
          <mxGeometry relative="1" as="geometry" />
        </mxCell>
        <mxCell id="1VWSUXiwOZT1shFSJKdf-88" value="PLayer" style="swimlane;fontStyle=0;childLayout=stackLayout;horizontal=1;startSize=30;horizontalStack=0;resizeParent=1;resizeParentMax=0;resizeLast=0;collapsible=1;marginBottom=0;" vertex="1" collapsed="1" parent="WIyWlLk6GJQsqaUBKTNV-1">
          <mxGeometry x="722" y="1100" width="50" height="30" as="geometry">
            <mxRectangle x="710" y="930" width="140" height="90" as="alternateBounds" />
          </mxGeometry>
        </mxCell>
        <mxCell id="1VWSUXiwOZT1shFSJKdf-90" value="Item 2" style="text;strokeColor=none;fillColor=none;align=left;verticalAlign=middle;spacingLeft=4;spacingRight=4;overflow=hidden;points=[[0,0.5],[1,0.5]];portConstraint=eastwest;rotatable=0;" vertex="1" parent="1VWSUXiwOZT1shFSJKdf-88">
          <mxGeometry y="30" width="140" height="30" as="geometry" />
        </mxCell>
        <mxCell id="1VWSUXiwOZT1shFSJKdf-91" value="Item 3" style="text;strokeColor=none;fillColor=none;align=left;verticalAlign=middle;spacingLeft=4;spacingRight=4;overflow=hidden;points=[[0,0.5],[1,0.5]];portConstraint=eastwest;rotatable=0;" vertex="1" parent="1VWSUXiwOZT1shFSJKdf-88">
          <mxGeometry y="60" width="140" height="30" as="geometry" />
        </mxCell>
        <mxCell id="1VWSUXiwOZT1shFSJKdf-100" style="edgeStyle=orthogonalEdgeStyle;rounded=0;orthogonalLoop=1;jettySize=auto;html=1;exitX=0.5;exitY=1;exitDx=0;exitDy=0;endArrow=open;endFill=0;entryX=0.5;entryY=0;entryDx=0;entryDy=0;" edge="1" parent="WIyWlLk6GJQsqaUBKTNV-1" source="1VWSUXiwOZT1shFSJKdf-92" target="1VWSUXiwOZT1shFSJKdf-95">
          <mxGeometry relative="1" as="geometry">
            <mxPoint x="910" y="1150" as="targetPoint" />
          </mxGeometry>
        </mxCell>
        <mxCell id="1VWSUXiwOZT1shFSJKdf-92" value="Inventory" style="swimlane;fontStyle=0;childLayout=stackLayout;horizontal=1;startSize=30;horizontalStack=0;resizeParent=1;resizeParentMax=0;resizeLast=0;collapsible=1;marginBottom=0;" vertex="1" collapsed="1" parent="WIyWlLk6GJQsqaUBKTNV-1">
          <mxGeometry x="847" y="1100" width="80" height="30" as="geometry">
            <mxRectangle x="710" y="930" width="140" height="90" as="alternateBounds" />
          </mxGeometry>
        </mxCell>
        <mxCell id="1VWSUXiwOZT1shFSJKdf-93" value="Item 2" style="text;strokeColor=none;fillColor=none;align=left;verticalAlign=middle;spacingLeft=4;spacingRight=4;overflow=hidden;points=[[0,0.5],[1,0.5]];portConstraint=eastwest;rotatable=0;" vertex="1" parent="1VWSUXiwOZT1shFSJKdf-92">
          <mxGeometry y="30" width="140" height="30" as="geometry" />
        </mxCell>
        <mxCell id="1VWSUXiwOZT1shFSJKdf-94" value="Item 3" style="text;strokeColor=none;fillColor=none;align=left;verticalAlign=middle;spacingLeft=4;spacingRight=4;overflow=hidden;points=[[0,0.5],[1,0.5]];portConstraint=eastwest;rotatable=0;" vertex="1" parent="1VWSUXiwOZT1shFSJKdf-92">
          <mxGeometry y="60" width="140" height="30" as="geometry" />
        </mxCell>
        <mxCell id="1VWSUXiwOZT1shFSJKdf-95" value="Objects" style="swimlane;fontStyle=0;childLayout=stackLayout;horizontal=1;startSize=30;horizontalStack=0;resizeParent=1;resizeParentMax=0;resizeLast=0;collapsible=1;marginBottom=0;" vertex="1" collapsed="1" parent="WIyWlLk6GJQsqaUBKTNV-1">
          <mxGeometry x="847" y="1200" width="80" height="30" as="geometry">
            <mxRectangle x="710" y="930" width="140" height="90" as="alternateBounds" />
          </mxGeometry>
        </mxCell>
        <mxCell id="1VWSUXiwOZT1shFSJKdf-96" value="Item 2" style="text;strokeColor=none;fillColor=none;align=left;verticalAlign=middle;spacingLeft=4;spacingRight=4;overflow=hidden;points=[[0,0.5],[1,0.5]];portConstraint=eastwest;rotatable=0;" vertex="1" parent="1VWSUXiwOZT1shFSJKdf-95">
          <mxGeometry y="30" width="140" height="30" as="geometry" />
        </mxCell>
        <mxCell id="1VWSUXiwOZT1shFSJKdf-97" value="Item 3" style="text;strokeColor=none;fillColor=none;align=left;verticalAlign=middle;spacingLeft=4;spacingRight=4;overflow=hidden;points=[[0,0.5],[1,0.5]];portConstraint=eastwest;rotatable=0;" vertex="1" parent="1VWSUXiwOZT1shFSJKdf-95">
          <mxGeometry y="60" width="140" height="30" as="geometry" />
        </mxCell>
        <mxCell id="1VWSUXiwOZT1shFSJKdf-105" value="" style="rounded=0;orthogonalLoop=1;jettySize=auto;html=1;endArrow=none;endFill=0;sketch=0;sourcePerimeterSpacing=0;targetPerimeterSpacing=0;exitX=1;exitY=0.5;exitDx=0;exitDy=0;dashed=1;startArrow=open;startFill=0;" edge="1" parent="WIyWlLk6GJQsqaUBKTNV-1" source="1VWSUXiwOZT1shFSJKdf-87">
          <mxGeometry relative="1" as="geometry">
            <mxPoint x="550" y="1085" as="sourcePoint" />
            <mxPoint x="690.0739412258374" y="1115.8567058737674" as="targetPoint" />
          </mxGeometry>
        </mxCell>
        <mxCell id="1VWSUXiwOZT1shFSJKdf-106" value="" style="rounded=0;orthogonalLoop=1;jettySize=auto;html=1;endArrow=halfCircle;endFill=0;entryX=0.5;entryY=0.5;endSize=6;strokeWidth=1;sketch=0;exitX=0;exitY=0.5;exitDx=0;exitDy=0;" edge="1" parent="WIyWlLk6GJQsqaUBKTNV-1" source="1VWSUXiwOZT1shFSJKdf-88">
          <mxGeometry relative="1" as="geometry">
            <mxPoint x="590" y="1085" as="sourcePoint" />
            <mxPoint x="695" y="1115" as="targetPoint" />
          </mxGeometry>
        </mxCell>
        <mxCell id="1VWSUXiwOZT1shFSJKdf-109" value="" style="rounded=0;orthogonalLoop=1;jettySize=auto;html=1;endArrow=halfCircle;endFill=0;endSize=6;strokeWidth=1;sketch=0;exitX=0;exitY=0.5;exitDx=0;exitDy=0;" edge="1" parent="WIyWlLk6GJQsqaUBKTNV-1" source="1VWSUXiwOZT1shFSJKdf-87">
          <mxGeometry relative="1" as="geometry">
            <mxPoint x="732" y="1125" as="sourcePoint" />
            <mxPoint x="450" y="1090" as="targetPoint" />
            <Array as="points">
              <mxPoint x="580" y="1090" />
            </Array>
          </mxGeometry>
        </mxCell>
        <mxCell id="1VWSUXiwOZT1shFSJKdf-111" value="Take Object" style="edgeLabel;html=1;align=center;verticalAlign=middle;resizable=0;points=[];" vertex="1" connectable="0" parent="1VWSUXiwOZT1shFSJKdf-109">
          <mxGeometry x="0.3936" y="2" relative="1" as="geometry">
            <mxPoint x="26" as="offset" />
          </mxGeometry>
        </mxCell>
        <mxCell id="1VWSUXiwOZT1shFSJKdf-112" value="" style="rounded=0;orthogonalLoop=1;jettySize=auto;html=1;endArrow=halfCircle;endFill=0;endSize=6;strokeWidth=1;sketch=0;exitX=0;exitY=0.5;exitDx=0;exitDy=0;" edge="1" parent="WIyWlLk6GJQsqaUBKTNV-1" source="1VWSUXiwOZT1shFSJKdf-87">
          <mxGeometry relative="1" as="geometry">
            <mxPoint x="617" y="1120" as="sourcePoint" />
            <mxPoint x="450" y="1140" as="targetPoint" />
            <Array as="points">
              <mxPoint x="580" y="1140" />
            </Array>
          </mxGeometry>
        </mxCell>
        <mxCell id="1VWSUXiwOZT1shFSJKdf-113" value="Lay Down Object" style="edgeLabel;html=1;align=center;verticalAlign=middle;resizable=0;points=[];" vertex="1" connectable="0" parent="1VWSUXiwOZT1shFSJKdf-112">
          <mxGeometry x="0.3936" y="2" relative="1" as="geometry">
            <mxPoint x="26" as="offset" />
          </mxGeometry>
        </mxCell>
        <mxCell id="1VWSUXiwOZT1shFSJKdf-114" value="ROOM" style="html=1;align=left;verticalAlign=top;" vertex="1" parent="WIyWlLk6GJQsqaUBKTNV-1">
          <mxGeometry x="625" y="1300" width="375" height="180" as="geometry" />
        </mxCell>
        <mxCell id="1VWSUXiwOZT1shFSJKdf-115" value="" style="shape=module;align=left;spacingLeft=20;align=center;verticalAlign=top;" vertex="1" parent="WIyWlLk6GJQsqaUBKTNV-1">
          <mxGeometry x="958" y="1310" width="32" height="50" as="geometry" />
        </mxCell>
        <mxCell id="1VWSUXiwOZT1shFSJKdf-116" value="" style="html=1;" vertex="1" parent="WIyWlLk6GJQsqaUBKTNV-1">
          <mxGeometry x="612" y="1350" width="30" height="30" as="geometry" />
        </mxCell>
        <mxCell id="1VWSUXiwOZT1shFSJKdf-117" style="edgeStyle=orthogonalEdgeStyle;rounded=0;orthogonalLoop=1;jettySize=auto;html=1;exitX=0;exitY=0.5;exitDx=0;exitDy=0;endArrow=open;endFill=0;" edge="1" parent="WIyWlLk6GJQsqaUBKTNV-1" source="1VWSUXiwOZT1shFSJKdf-118" target="1VWSUXiwOZT1shFSJKdf-122">
          <mxGeometry relative="1" as="geometry" />
        </mxCell>
        <mxCell id="1VWSUXiwOZT1shFSJKdf-153" value="" style="edgeStyle=orthogonalEdgeStyle;rounded=0;orthogonalLoop=1;jettySize=auto;html=1;startArrow=block;startFill=0;endArrow=none;endFill=0;" edge="1" parent="WIyWlLk6GJQsqaUBKTNV-1" source="1VWSUXiwOZT1shFSJKdf-118" target="1VWSUXiwOZT1shFSJKdf-150">
          <mxGeometry relative="1" as="geometry" />
        </mxCell>
        <mxCell id="1VWSUXiwOZT1shFSJKdf-118" value="Room" style="swimlane;fontStyle=0;childLayout=stackLayout;horizontal=1;startSize=30;horizontalStack=0;resizeParent=1;resizeParentMax=0;resizeLast=0;collapsible=1;marginBottom=0;" vertex="1" collapsed="1" parent="WIyWlLk6GJQsqaUBKTNV-1">
          <mxGeometry x="860" y="1320" width="50" height="30" as="geometry">
            <mxRectangle x="710" y="930" width="140" height="90" as="alternateBounds" />
          </mxGeometry>
        </mxCell>
        <mxCell id="1VWSUXiwOZT1shFSJKdf-119" value="Item 2" style="text;strokeColor=none;fillColor=none;align=left;verticalAlign=middle;spacingLeft=4;spacingRight=4;overflow=hidden;points=[[0,0.5],[1,0.5]];portConstraint=eastwest;rotatable=0;" vertex="1" parent="1VWSUXiwOZT1shFSJKdf-118">
          <mxGeometry y="30" width="140" height="30" as="geometry" />
        </mxCell>
        <mxCell id="1VWSUXiwOZT1shFSJKdf-120" value="Item 3" style="text;strokeColor=none;fillColor=none;align=left;verticalAlign=middle;spacingLeft=4;spacingRight=4;overflow=hidden;points=[[0,0.5],[1,0.5]];portConstraint=eastwest;rotatable=0;" vertex="1" parent="1VWSUXiwOZT1shFSJKdf-118">
          <mxGeometry y="60" width="140" height="30" as="geometry" />
        </mxCell>
        <mxCell id="1VWSUXiwOZT1shFSJKdf-121" style="edgeStyle=orthogonalEdgeStyle;rounded=0;orthogonalLoop=1;jettySize=auto;html=1;exitX=0.5;exitY=1;exitDx=0;exitDy=0;endArrow=open;endFill=0;entryX=0.5;entryY=0;entryDx=0;entryDy=0;" edge="1" parent="WIyWlLk6GJQsqaUBKTNV-1" source="1VWSUXiwOZT1shFSJKdf-122" target="1VWSUXiwOZT1shFSJKdf-125">
          <mxGeometry relative="1" as="geometry">
            <mxPoint x="915" y="1390" as="targetPoint" />
          </mxGeometry>
        </mxCell>
        <mxCell id="1VWSUXiwOZT1shFSJKdf-128" value="" style="rounded=0;orthogonalLoop=1;jettySize=auto;html=1;endArrow=none;endFill=0;sketch=0;sourcePerimeterSpacing=0;targetPerimeterSpacing=0;exitX=1;exitY=0.5;exitDx=0;exitDy=0;dashed=1;startArrow=open;startFill=0;" edge="1" parent="WIyWlLk6GJQsqaUBKTNV-1" source="1VWSUXiwOZT1shFSJKdf-116" target="1VWSUXiwOZT1shFSJKdf-169">
          <mxGeometry relative="1" as="geometry">
            <mxPoint x="555" y="1325" as="sourcePoint" />
            <mxPoint x="695.0739412258374" y="1355.8567058737674" as="targetPoint" />
          </mxGeometry>
        </mxCell>
        <mxCell id="1VWSUXiwOZT1shFSJKdf-129" value="" style="rounded=0;orthogonalLoop=1;jettySize=auto;html=1;endArrow=Circle;endFill=0;endSize=6;strokeWidth=1;sketch=0;exitX=0;exitY=0.5;exitDx=0;exitDy=0;startArrow=none;" edge="1" parent="WIyWlLk6GJQsqaUBKTNV-1" source="1VWSUXiwOZT1shFSJKdf-169" target="1VWSUXiwOZT1shFSJKdf-169">
          <mxGeometry relative="1" as="geometry">
            <mxPoint x="595" y="1325" as="sourcePoint" />
            <mxPoint x="700" y="1355" as="targetPoint" />
          </mxGeometry>
        </mxCell>
        <mxCell id="1VWSUXiwOZT1shFSJKdf-137" value="" style="rounded=0;orthogonalLoop=1;jettySize=auto;html=1;endArrow=none;endFill=0;sketch=0;sourcePerimeterSpacing=0;targetPerimeterSpacing=0;" edge="1" target="1VWSUXiwOZT1shFSJKdf-139" parent="WIyWlLk6GJQsqaUBKTNV-1">
          <mxGeometry relative="1" as="geometry">
            <mxPoint x="610" y="1365" as="sourcePoint" />
            <Array as="points">
              <mxPoint x="570" y="1335" />
            </Array>
          </mxGeometry>
        </mxCell>
        <mxCell id="1VWSUXiwOZT1shFSJKdf-140" value="Give Object" style="edgeLabel;html=1;align=center;verticalAlign=middle;resizable=0;points=[];" vertex="1" connectable="0" parent="1VWSUXiwOZT1shFSJKdf-137">
          <mxGeometry x="0.3968" relative="1" as="geometry">
            <mxPoint x="1" as="offset" />
          </mxGeometry>
        </mxCell>
        <mxCell id="1VWSUXiwOZT1shFSJKdf-139" value="" style="ellipse;whiteSpace=wrap;html=1;align=center;aspect=fixed;resizable=0;points=[];outlineConnect=0;sketch=0;" vertex="1" parent="WIyWlLk6GJQsqaUBKTNV-1">
          <mxGeometry x="465" y="1330" width="10" height="10" as="geometry" />
        </mxCell>
        <mxCell id="1VWSUXiwOZT1shFSJKdf-144" value="" style="rounded=0;orthogonalLoop=1;jettySize=auto;html=1;endArrow=none;endFill=0;sketch=0;startArrow=none;" edge="1" parent="WIyWlLk6GJQsqaUBKTNV-1" source="1VWSUXiwOZT1shFSJKdf-143">
          <mxGeometry relative="1" as="geometry">
            <mxPoint x="610" y="1370" as="sourcePoint" />
            <mxPoint x="470" y="1410" as="targetPoint" />
            <Array as="points" />
          </mxGeometry>
        </mxCell>
        <mxCell id="1VWSUXiwOZT1shFSJKdf-146" value="Receive Object" style="edgeLabel;html=1;align=center;verticalAlign=middle;resizable=0;points=[];" vertex="1" connectable="0" parent="1VWSUXiwOZT1shFSJKdf-144">
          <mxGeometry x="0.0321" y="2" relative="1" as="geometry">
            <mxPoint x="60" as="offset" />
          </mxGeometry>
        </mxCell>
        <mxCell id="1VWSUXiwOZT1shFSJKdf-150" value="Special Room" style="swimlane;fontStyle=0;childLayout=stackLayout;horizontal=1;startSize=30;horizontalStack=0;resizeParent=1;resizeParentMax=0;resizeLast=0;collapsible=1;marginBottom=0;" vertex="1" collapsed="1" parent="WIyWlLk6GJQsqaUBKTNV-1">
          <mxGeometry x="838.5" y="1400" width="93" height="30" as="geometry">
            <mxRectangle x="710" y="930" width="140" height="90" as="alternateBounds" />
          </mxGeometry>
        </mxCell>
        <mxCell id="1VWSUXiwOZT1shFSJKdf-151" value="Item 2" style="text;strokeColor=none;fillColor=none;align=left;verticalAlign=middle;spacingLeft=4;spacingRight=4;overflow=hidden;points=[[0,0.5],[1,0.5]];portConstraint=eastwest;rotatable=0;" vertex="1" parent="1VWSUXiwOZT1shFSJKdf-150">
          <mxGeometry y="30" width="140" height="30" as="geometry" />
        </mxCell>
        <mxCell id="1VWSUXiwOZT1shFSJKdf-152" value="Item 3" style="text;strokeColor=none;fillColor=none;align=left;verticalAlign=middle;spacingLeft=4;spacingRight=4;overflow=hidden;points=[[0,0.5],[1,0.5]];portConstraint=eastwest;rotatable=0;" vertex="1" parent="1VWSUXiwOZT1shFSJKdf-150">
          <mxGeometry y="60" width="140" height="30" as="geometry" />
        </mxCell>
        <mxCell id="1VWSUXiwOZT1shFSJKdf-165" value="" style="rounded=0;orthogonalLoop=1;jettySize=auto;html=1;endArrow=none;endFill=0;sketch=0;sourcePerimeterSpacing=0;targetPerimeterSpacing=0;dashed=1;startArrow=open;startFill=0;" edge="1" parent="WIyWlLk6GJQsqaUBKTNV-1" target="1VWSUXiwOZT1shFSJKdf-171">
          <mxGeometry relative="1" as="geometry">
            <mxPoint x="640" y="1370" as="sourcePoint" />
            <mxPoint x="690" y="1430" as="targetPoint" />
          </mxGeometry>
        </mxCell>
        <mxCell id="1VWSUXiwOZT1shFSJKdf-169" value="" style="ellipse;whiteSpace=wrap;html=1;align=center;aspect=fixed;resizable=0;points=[];outlineConnect=0;sketch=0;" vertex="1" parent="WIyWlLk6GJQsqaUBKTNV-1">
          <mxGeometry x="695.5" y="1330" width="10" height="10" as="geometry" />
        </mxCell>
        <mxCell id="1VWSUXiwOZT1shFSJKdf-170" value="" style="rounded=0;orthogonalLoop=1;jettySize=auto;html=1;endArrow=none;endFill=0;endSize=6;strokeWidth=1;sketch=0;exitX=0;exitY=0.5;exitDx=0;exitDy=0;startArrow=none;" edge="1" parent="WIyWlLk6GJQsqaUBKTNV-1" source="1VWSUXiwOZT1shFSJKdf-122" target="1VWSUXiwOZT1shFSJKdf-169">
          <mxGeometry relative="1" as="geometry">
            <mxPoint x="727" y="1355" as="sourcePoint" />
            <mxPoint x="700" y="1355" as="targetPoint" />
          </mxGeometry>
        </mxCell>
        <mxCell id="1VWSUXiwOZT1shFSJKdf-171" value="" style="ellipse;whiteSpace=wrap;html=1;align=center;aspect=fixed;resizable=0;points=[];outlineConnect=0;sketch=0;" vertex="1" parent="WIyWlLk6GJQsqaUBKTNV-1">
          <mxGeometry x="695.5" y="1340" width="10" height="10" as="geometry" />
        </mxCell>
        <mxCell id="1VWSUXiwOZT1shFSJKdf-172" value="" style="rounded=0;orthogonalLoop=1;jettySize=auto;html=1;endArrow=none;endFill=0;endSize=6;strokeWidth=1;sketch=0;exitX=0;exitY=0.75;exitDx=0;exitDy=0;startArrow=none;" edge="1" parent="WIyWlLk6GJQsqaUBKTNV-1" source="1VWSUXiwOZT1shFSJKdf-122" target="1VWSUXiwOZT1shFSJKdf-171">
          <mxGeometry relative="1" as="geometry">
            <mxPoint x="705.5000000000002" y="1445" as="sourcePoint" />
            <mxPoint x="680" y="1420" as="targetPoint" />
          </mxGeometry>
        </mxCell>
        <mxCell id="1VWSUXiwOZT1shFSJKdf-143" value="" style="ellipse;whiteSpace=wrap;html=1;align=center;aspect=fixed;resizable=0;points=[];outlineConnect=0;sketch=0;" vertex="1" parent="WIyWlLk6GJQsqaUBKTNV-1">
          <mxGeometry x="465" y="1400" width="10" height="10" as="geometry" />
        </mxCell>
        <mxCell id="1VWSUXiwOZT1shFSJKdf-173" value="" style="rounded=0;orthogonalLoop=1;jettySize=auto;html=1;endArrow=none;endFill=0;sketch=0;sourcePerimeterSpacing=0;" edge="1" parent="WIyWlLk6GJQsqaUBKTNV-1" target="1VWSUXiwOZT1shFSJKdf-143">
          <mxGeometry relative="1" as="geometry">
            <mxPoint x="610" y="1370" as="sourcePoint" />
            <mxPoint x="470" y="1410" as="targetPoint" />
            <Array as="points">
              <mxPoint x="575" y="1405" />
            </Array>
          </mxGeometry>
        </mxCell>
        <mxCell id="1VWSUXiwOZT1shFSJKdf-175" value="" style="rounded=0;orthogonalLoop=1;jettySize=auto;html=1;endArrow=none;endFill=0;sketch=0;targetPerimeterSpacing=0;exitX=0;exitY=0.5;exitDx=0;exitDy=0;startArrow=none;" edge="1" parent="WIyWlLk6GJQsqaUBKTNV-1" source="1VWSUXiwOZT1shFSJKdf-177">
          <mxGeometry relative="1" as="geometry">
            <mxPoint x="620" y="1375" as="sourcePoint" />
            <mxPoint x="470" y="1365" as="targetPoint" />
            <Array as="points" />
          </mxGeometry>
        </mxCell>
        <mxCell id="1VWSUXiwOZT1shFSJKdf-177" value="" style="ellipse;whiteSpace=wrap;html=1;align=center;aspect=fixed;resizable=0;points=[];outlineConnect=0;sketch=0;" vertex="1" parent="WIyWlLk6GJQsqaUBKTNV-1">
          <mxGeometry x="465" y="1360" width="10" height="10" as="geometry" />
        </mxCell>
        <mxCell id="1VWSUXiwOZT1shFSJKdf-178" value="List Objects" style="rounded=0;orthogonalLoop=1;jettySize=auto;html=1;endArrow=none;endFill=0;sketch=0;sourcePerimeterSpacing=0;exitX=0;exitY=0.5;exitDx=0;exitDy=0;" edge="1" parent="WIyWlLk6GJQsqaUBKTNV-1" source="1VWSUXiwOZT1shFSJKdf-116" target="1VWSUXiwOZT1shFSJKdf-177">
          <mxGeometry x="-0.0949" relative="1" as="geometry">
            <mxPoint x="612" y="1365" as="sourcePoint" />
            <mxPoint x="470" y="1365" as="targetPoint" />
            <Array as="points">
              <mxPoint x="510" y="1365" />
            </Array>
            <mxPoint x="1" as="offset" />
          </mxGeometry>
        </mxCell>
        <mxCell id="1VWSUXiwOZT1shFSJKdf-181" value="" style="rounded=0;orthogonalLoop=1;jettySize=auto;html=1;endArrow=halfCircle;endFill=0;endSize=6;strokeWidth=1;sketch=0;exitX=0;exitY=0.5;exitDx=0;exitDy=0;" edge="1" parent="WIyWlLk6GJQsqaUBKTNV-1" source="1VWSUXiwOZT1shFSJKdf-87">
          <mxGeometry relative="1" as="geometry">
            <mxPoint x="617" y="1135" as="sourcePoint" />
            <mxPoint x="450" y="1170" as="targetPoint" />
            <Array as="points">
              <mxPoint x="590" y="1170" />
            </Array>
          </mxGeometry>
        </mxCell>
        <mxCell id="1VWSUXiwOZT1shFSJKdf-182" value="Request room object list" style="edgeLabel;html=1;align=center;verticalAlign=middle;resizable=0;points=[];" vertex="1" connectable="0" parent="1VWSUXiwOZT1shFSJKdf-181">
          <mxGeometry x="0.3936" y="2" relative="1" as="geometry">
            <mxPoint x="26" as="offset" />
          </mxGeometry>
        </mxCell>
        <mxCell id="1VWSUXiwOZT1shFSJKdf-183" value="Level" style="html=1;align=left;verticalAlign=top;" vertex="1" parent="WIyWlLk6GJQsqaUBKTNV-1">
          <mxGeometry x="625" y="1530" width="375" height="180" as="geometry" />
        </mxCell>
        <mxCell id="1VWSUXiwOZT1shFSJKdf-184" value="" style="shape=module;align=left;spacingLeft=20;align=center;verticalAlign=top;" vertex="1" parent="WIyWlLk6GJQsqaUBKTNV-1">
          <mxGeometry x="958" y="1540" width="32" height="50" as="geometry" />
        </mxCell>
        <mxCell id="1VWSUXiwOZT1shFSJKdf-185" value="" style="html=1;" vertex="1" parent="WIyWlLk6GJQsqaUBKTNV-1">
          <mxGeometry x="612" y="1580" width="30" height="30" as="geometry" />
        </mxCell>
        <mxCell id="1VWSUXiwOZT1shFSJKdf-186" style="edgeStyle=orthogonalEdgeStyle;rounded=0;orthogonalLoop=1;jettySize=auto;html=1;exitX=1;exitY=0.5;exitDx=0;exitDy=0;endArrow=open;endFill=0;" edge="1" parent="WIyWlLk6GJQsqaUBKTNV-1" source="1VWSUXiwOZT1shFSJKdf-188" target="1VWSUXiwOZT1shFSJKdf-192">
          <mxGeometry relative="1" as="geometry" />
        </mxCell>
        <mxCell id="1VWSUXiwOZT1shFSJKdf-187" value="" style="edgeStyle=orthogonalEdgeStyle;rounded=0;orthogonalLoop=1;jettySize=auto;html=1;startArrow=block;startFill=0;endArrow=none;endFill=0;" edge="1" parent="WIyWlLk6GJQsqaUBKTNV-1" source="1VWSUXiwOZT1shFSJKdf-188" target="1VWSUXiwOZT1shFSJKdf-205">
          <mxGeometry relative="1" as="geometry" />
        </mxCell>
        <mxCell id="1VWSUXiwOZT1shFSJKdf-188" value="Room" style="swimlane;fontStyle=0;childLayout=stackLayout;horizontal=1;startSize=30;horizontalStack=0;resizeParent=1;resizeParentMax=0;resizeLast=0;collapsible=1;marginBottom=0;" vertex="1" collapsed="1" parent="WIyWlLk6GJQsqaUBKTNV-1">
          <mxGeometry x="727" y="1570" width="50" height="30" as="geometry">
            <mxRectangle x="710" y="930" width="140" height="90" as="alternateBounds" />
          </mxGeometry>
        </mxCell>
        <mxCell id="1VWSUXiwOZT1shFSJKdf-189" value="Item 2" style="text;strokeColor=none;fillColor=none;align=left;verticalAlign=middle;spacingLeft=4;spacingRight=4;overflow=hidden;points=[[0,0.5],[1,0.5]];portConstraint=eastwest;rotatable=0;" vertex="1" parent="1VWSUXiwOZT1shFSJKdf-188">
          <mxGeometry y="30" width="140" height="30" as="geometry" />
        </mxCell>
        <mxCell id="1VWSUXiwOZT1shFSJKdf-190" value="Item 3" style="text;strokeColor=none;fillColor=none;align=left;verticalAlign=middle;spacingLeft=4;spacingRight=4;overflow=hidden;points=[[0,0.5],[1,0.5]];portConstraint=eastwest;rotatable=0;" vertex="1" parent="1VWSUXiwOZT1shFSJKdf-188">
          <mxGeometry y="60" width="140" height="30" as="geometry" />
        </mxCell>
        <mxCell id="1VWSUXiwOZT1shFSJKdf-191" style="edgeStyle=orthogonalEdgeStyle;rounded=0;orthogonalLoop=1;jettySize=auto;html=1;exitX=0.5;exitY=1;exitDx=0;exitDy=0;endArrow=open;endFill=0;entryX=0.5;entryY=0;entryDx=0;entryDy=0;" edge="1" parent="WIyWlLk6GJQsqaUBKTNV-1" source="1VWSUXiwOZT1shFSJKdf-192" target="1VWSUXiwOZT1shFSJKdf-195">
          <mxGeometry relative="1" as="geometry">
            <mxPoint x="915" y="1620" as="targetPoint" />
          </mxGeometry>
        </mxCell>
        <mxCell id="1VWSUXiwOZT1shFSJKdf-192" value="Inventory" style="swimlane;fontStyle=0;childLayout=stackLayout;horizontal=1;startSize=30;horizontalStack=0;resizeParent=1;resizeParentMax=0;resizeLast=0;collapsible=1;marginBottom=0;" vertex="1" collapsed="1" parent="WIyWlLk6GJQsqaUBKTNV-1">
          <mxGeometry x="852" y="1570" width="80" height="30" as="geometry">
            <mxRectangle x="710" y="930" width="140" height="90" as="alternateBounds" />
          </mxGeometry>
        </mxCell>
        <mxCell id="1VWSUXiwOZT1shFSJKdf-193" value="Item 2" style="text;strokeColor=none;fillColor=none;align=left;verticalAlign=middle;spacingLeft=4;spacingRight=4;overflow=hidden;points=[[0,0.5],[1,0.5]];portConstraint=eastwest;rotatable=0;" vertex="1" parent="1VWSUXiwOZT1shFSJKdf-192">
          <mxGeometry y="30" width="140" height="30" as="geometry" />
        </mxCell>
        <mxCell id="1VWSUXiwOZT1shFSJKdf-194" value="Item 3" style="text;strokeColor=none;fillColor=none;align=left;verticalAlign=middle;spacingLeft=4;spacingRight=4;overflow=hidden;points=[[0,0.5],[1,0.5]];portConstraint=eastwest;rotatable=0;" vertex="1" parent="1VWSUXiwOZT1shFSJKdf-192">
          <mxGeometry y="60" width="140" height="30" as="geometry" />
        </mxCell>
        <mxCell id="1VWSUXiwOZT1shFSJKdf-195" value="Objects" style="swimlane;fontStyle=0;childLayout=stackLayout;horizontal=1;startSize=30;horizontalStack=0;resizeParent=1;resizeParentMax=0;resizeLast=0;collapsible=1;marginBottom=0;" vertex="1" collapsed="1" parent="WIyWlLk6GJQsqaUBKTNV-1">
          <mxGeometry x="852" y="1660" width="80" height="30" as="geometry">
            <mxRectangle x="710" y="930" width="140" height="90" as="alternateBounds" />
          </mxGeometry>
        </mxCell>
        <mxCell id="1VWSUXiwOZT1shFSJKdf-196" value="Item 2" style="text;strokeColor=none;fillColor=none;align=left;verticalAlign=middle;spacingLeft=4;spacingRight=4;overflow=hidden;points=[[0,0.5],[1,0.5]];portConstraint=eastwest;rotatable=0;" vertex="1" parent="1VWSUXiwOZT1shFSJKdf-195">
          <mxGeometry y="30" width="140" height="30" as="geometry" />
        </mxCell>
        <mxCell id="1VWSUXiwOZT1shFSJKdf-197" value="Item 3" style="text;strokeColor=none;fillColor=none;align=left;verticalAlign=middle;spacingLeft=4;spacingRight=4;overflow=hidden;points=[[0,0.5],[1,0.5]];portConstraint=eastwest;rotatable=0;" vertex="1" parent="1VWSUXiwOZT1shFSJKdf-195">
          <mxGeometry y="60" width="140" height="30" as="geometry" />
        </mxCell>
        <mxCell id="1VWSUXiwOZT1shFSJKdf-198" value="" style="rounded=0;orthogonalLoop=1;jettySize=auto;html=1;endArrow=none;endFill=0;sketch=0;sourcePerimeterSpacing=0;targetPerimeterSpacing=0;exitX=1;exitY=0.5;exitDx=0;exitDy=0;dashed=1;startArrow=open;startFill=0;" edge="1" parent="WIyWlLk6GJQsqaUBKTNV-1" source="1VWSUXiwOZT1shFSJKdf-185">
          <mxGeometry relative="1" as="geometry">
            <mxPoint x="555" y="1555" as="sourcePoint" />
            <mxPoint x="695.0739412258374" y="1585.8567058737674" as="targetPoint" />
          </mxGeometry>
        </mxCell>
        <mxCell id="1VWSUXiwOZT1shFSJKdf-199" value="" style="rounded=0;orthogonalLoop=1;jettySize=auto;html=1;endArrow=Circle;endFill=0;entryX=0.5;entryY=0.5;endSize=6;strokeWidth=1;sketch=0;exitX=0;exitY=0.5;exitDx=0;exitDy=0;startArrow=none;" edge="1" parent="WIyWlLk6GJQsqaUBKTNV-1" source="1VWSUXiwOZT1shFSJKdf-209">
          <mxGeometry relative="1" as="geometry">
            <mxPoint x="595" y="1555" as="sourcePoint" />
            <mxPoint x="700" y="1585" as="targetPoint" />
          </mxGeometry>
        </mxCell>
        <mxCell id="1VWSUXiwOZT1shFSJKdf-200" value="" style="rounded=0;orthogonalLoop=1;jettySize=auto;html=1;endArrow=none;endFill=0;sketch=0;sourcePerimeterSpacing=0;targetPerimeterSpacing=0;" edge="1" parent="WIyWlLk6GJQsqaUBKTNV-1" target="1VWSUXiwOZT1shFSJKdf-202">
          <mxGeometry relative="1" as="geometry">
            <mxPoint x="610" y="1595" as="sourcePoint" />
            <Array as="points">
              <mxPoint x="570" y="1565" />
            </Array>
          </mxGeometry>
        </mxCell>
        <mxCell id="1VWSUXiwOZT1shFSJKdf-201" value="Give Object" style="edgeLabel;html=1;align=center;verticalAlign=middle;resizable=0;points=[];" vertex="1" connectable="0" parent="1VWSUXiwOZT1shFSJKdf-200">
          <mxGeometry x="0.3968" relative="1" as="geometry">
            <mxPoint x="1" as="offset" />
          </mxGeometry>
        </mxCell>
        <mxCell id="1VWSUXiwOZT1shFSJKdf-202" value="" style="ellipse;whiteSpace=wrap;html=1;align=center;aspect=fixed;resizable=0;points=[];outlineConnect=0;sketch=0;" vertex="1" parent="WIyWlLk6GJQsqaUBKTNV-1">
          <mxGeometry x="465" y="1560" width="10" height="10" as="geometry" />
        </mxCell>
        <mxCell id="1VWSUXiwOZT1shFSJKdf-203" value="" style="rounded=0;orthogonalLoop=1;jettySize=auto;html=1;endArrow=none;endFill=0;sketch=0;startArrow=none;" edge="1" parent="WIyWlLk6GJQsqaUBKTNV-1" source="1VWSUXiwOZT1shFSJKdf-213">
          <mxGeometry relative="1" as="geometry">
            <mxPoint x="610" y="1600" as="sourcePoint" />
            <mxPoint x="470" y="1640" as="targetPoint" />
            <Array as="points" />
          </mxGeometry>
        </mxCell>
        <mxCell id="1VWSUXiwOZT1shFSJKdf-204" value="Receive Object" style="edgeLabel;html=1;align=center;verticalAlign=middle;resizable=0;points=[];" vertex="1" connectable="0" parent="1VWSUXiwOZT1shFSJKdf-203">
          <mxGeometry x="0.0321" y="2" relative="1" as="geometry">
            <mxPoint x="60" as="offset" />
          </mxGeometry>
        </mxCell>
        <mxCell id="1VWSUXiwOZT1shFSJKdf-205" value="Special Room" style="swimlane;fontStyle=0;childLayout=stackLayout;horizontal=1;startSize=30;horizontalStack=0;resizeParent=1;resizeParentMax=0;resizeLast=0;collapsible=1;marginBottom=0;" vertex="1" collapsed="1" parent="WIyWlLk6GJQsqaUBKTNV-1">
          <mxGeometry x="705.5" y="1660" width="93" height="30" as="geometry">
            <mxRectangle x="710" y="930" width="140" height="90" as="alternateBounds" />
          </mxGeometry>
        </mxCell>
        <mxCell id="1VWSUXiwOZT1shFSJKdf-206" value="Item 2" style="text;strokeColor=none;fillColor=none;align=left;verticalAlign=middle;spacingLeft=4;spacingRight=4;overflow=hidden;points=[[0,0.5],[1,0.5]];portConstraint=eastwest;rotatable=0;" vertex="1" parent="1VWSUXiwOZT1shFSJKdf-205">
          <mxGeometry y="30" width="140" height="30" as="geometry" />
        </mxCell>
        <mxCell id="1VWSUXiwOZT1shFSJKdf-207" value="Item 3" style="text;strokeColor=none;fillColor=none;align=left;verticalAlign=middle;spacingLeft=4;spacingRight=4;overflow=hidden;points=[[0,0.5],[1,0.5]];portConstraint=eastwest;rotatable=0;" vertex="1" parent="1VWSUXiwOZT1shFSJKdf-205">
          <mxGeometry y="60" width="140" height="30" as="geometry" />
        </mxCell>
        <mxCell id="1VWSUXiwOZT1shFSJKdf-208" value="" style="rounded=0;orthogonalLoop=1;jettySize=auto;html=1;endArrow=none;endFill=0;sketch=0;sourcePerimeterSpacing=0;targetPerimeterSpacing=0;dashed=1;startArrow=open;startFill=0;" edge="1" parent="WIyWlLk6GJQsqaUBKTNV-1" source="1VWSUXiwOZT1shFSJKdf-185">
          <mxGeometry relative="1" as="geometry">
            <mxPoint x="643.5" y="1681.1963190184047" as="sourcePoint" />
            <mxPoint x="690" y="1660" as="targetPoint" />
          </mxGeometry>
        </mxCell>
        <mxCell id="1VWSUXiwOZT1shFSJKdf-209" value="" style="ellipse;whiteSpace=wrap;html=1;align=center;aspect=fixed;resizable=0;points=[];outlineConnect=0;sketch=0;" vertex="1" parent="WIyWlLk6GJQsqaUBKTNV-1">
          <mxGeometry x="695.5" y="1580" width="10" height="10" as="geometry" />
        </mxCell>
        <mxCell id="1VWSUXiwOZT1shFSJKdf-210" value="" style="rounded=0;orthogonalLoop=1;jettySize=auto;html=1;endArrow=none;endFill=0;entryX=0.5;entryY=0.5;endSize=6;strokeWidth=1;sketch=0;exitX=0;exitY=0.5;exitDx=0;exitDy=0;" edge="1" parent="WIyWlLk6GJQsqaUBKTNV-1" source="1VWSUXiwOZT1shFSJKdf-188" target="1VWSUXiwOZT1shFSJKdf-209">
          <mxGeometry relative="1" as="geometry">
            <mxPoint x="727" y="1585" as="sourcePoint" />
            <mxPoint x="700" y="1585" as="targetPoint" />
          </mxGeometry>
        </mxCell>
        <mxCell id="1VWSUXiwOZT1shFSJKdf-211" value="" style="ellipse;whiteSpace=wrap;html=1;align=center;aspect=fixed;resizable=0;points=[];outlineConnect=0;sketch=0;" vertex="1" parent="WIyWlLk6GJQsqaUBKTNV-1">
          <mxGeometry x="680" y="1650" width="10" height="10" as="geometry" />
        </mxCell>
        <mxCell id="1VWSUXiwOZT1shFSJKdf-212" value="" style="rounded=0;orthogonalLoop=1;jettySize=auto;html=1;endArrow=none;endFill=0;endSize=6;strokeWidth=1;sketch=0;exitX=0;exitY=0.5;exitDx=0;exitDy=0;" edge="1" parent="WIyWlLk6GJQsqaUBKTNV-1" source="1VWSUXiwOZT1shFSJKdf-205" target="1VWSUXiwOZT1shFSJKdf-211">
          <mxGeometry relative="1" as="geometry">
            <mxPoint x="705.5000000000002" y="1675" as="sourcePoint" />
            <mxPoint x="680" y="1650" as="targetPoint" />
          </mxGeometry>
        </mxCell>
        <mxCell id="1VWSUXiwOZT1shFSJKdf-213" value="" style="ellipse;whiteSpace=wrap;html=1;align=center;aspect=fixed;resizable=0;points=[];outlineConnect=0;sketch=0;" vertex="1" parent="WIyWlLk6GJQsqaUBKTNV-1">
          <mxGeometry x="465" y="1630" width="10" height="10" as="geometry" />
        </mxCell>
        <mxCell id="1VWSUXiwOZT1shFSJKdf-214" value="" style="rounded=0;orthogonalLoop=1;jettySize=auto;html=1;endArrow=none;endFill=0;sketch=0;sourcePerimeterSpacing=0;" edge="1" parent="WIyWlLk6GJQsqaUBKTNV-1" target="1VWSUXiwOZT1shFSJKdf-213">
          <mxGeometry relative="1" as="geometry">
            <mxPoint x="610" y="1600" as="sourcePoint" />
            <mxPoint x="470" y="1640" as="targetPoint" />
            <Array as="points">
              <mxPoint x="575" y="1635" />
            </Array>
          </mxGeometry>
        </mxCell>
        <mxCell id="1VWSUXiwOZT1shFSJKdf-215" value="" style="rounded=0;orthogonalLoop=1;jettySize=auto;html=1;endArrow=none;endFill=0;sketch=0;targetPerimeterSpacing=0;exitX=0;exitY=0.5;exitDx=0;exitDy=0;startArrow=none;" edge="1" parent="WIyWlLk6GJQsqaUBKTNV-1" source="1VWSUXiwOZT1shFSJKdf-216">
          <mxGeometry relative="1" as="geometry">
            <mxPoint x="620" y="1605" as="sourcePoint" />
            <mxPoint x="470" y="1595" as="targetPoint" />
            <Array as="points" />
          </mxGeometry>
        </mxCell>
        <mxCell id="1VWSUXiwOZT1shFSJKdf-216" value="" style="ellipse;whiteSpace=wrap;html=1;align=center;aspect=fixed;resizable=0;points=[];outlineConnect=0;sketch=0;" vertex="1" parent="WIyWlLk6GJQsqaUBKTNV-1">
          <mxGeometry x="465" y="1590" width="10" height="10" as="geometry" />
        </mxCell>
        <mxCell id="1VWSUXiwOZT1shFSJKdf-217" value="List Objects" style="rounded=0;orthogonalLoop=1;jettySize=auto;html=1;endArrow=none;endFill=0;sketch=0;sourcePerimeterSpacing=0;exitX=0;exitY=0.5;exitDx=0;exitDy=0;" edge="1" parent="WIyWlLk6GJQsqaUBKTNV-1" source="1VWSUXiwOZT1shFSJKdf-185" target="1VWSUXiwOZT1shFSJKdf-216">
          <mxGeometry x="-0.0949" relative="1" as="geometry">
            <mxPoint x="612" y="1595" as="sourcePoint" />
            <mxPoint x="470" y="1595" as="targetPoint" />
            <Array as="points">
              <mxPoint x="510" y="1595" />
            </Array>
            <mxPoint x="1" as="offset" />
          </mxGeometry>
        </mxCell>
        <mxCell id="1VWSUXiwOZT1shFSJKdf-221" value="" style="rounded=0;orthogonalLoop=1;jettySize=auto;html=1;endArrow=halfCircle;endFill=0;endSize=6;strokeWidth=1;sketch=0;exitX=0;exitY=0.75;exitDx=0;exitDy=0;" edge="1" parent="WIyWlLk6GJQsqaUBKTNV-1" source="1VWSUXiwOZT1shFSJKdf-88">
          <mxGeometry relative="1" as="geometry">
            <mxPoint x="620" y="1295" as="sourcePoint" />
            <mxPoint x="710" y="1140" as="targetPoint" />
          </mxGeometry>
        </mxCell>
        <mxCell id="1VWSUXiwOZT1shFSJKdf-223" value="" style="rounded=0;orthogonalLoop=1;jettySize=auto;html=1;endArrow=none;endFill=0;sketch=0;sourcePerimeterSpacing=0;targetPerimeterSpacing=0;exitX=1;exitY=0.75;exitDx=0;exitDy=0;dashed=1;startArrow=open;startFill=0;" edge="1" parent="WIyWlLk6GJQsqaUBKTNV-1" source="1VWSUXiwOZT1shFSJKdf-87">
          <mxGeometry relative="1" as="geometry">
            <mxPoint x="647" y="1135" as="sourcePoint" />
            <mxPoint x="710" y="1140" as="targetPoint" />
          </mxGeometry>
        </mxCell>
        <mxCell id="1VWSUXiwOZT1shFSJKdf-224" value="" style="rounded=0;orthogonalLoop=1;jettySize=auto;html=1;endArrow=halfCircle;endFill=0;endSize=6;strokeWidth=1;sketch=0;exitX=0;exitY=0.25;exitDx=0;exitDy=0;" edge="1" parent="WIyWlLk6GJQsqaUBKTNV-1" source="1VWSUXiwOZT1shFSJKdf-88">
          <mxGeometry relative="1" as="geometry">
            <mxPoint x="732" y="1125" as="sourcePoint" />
            <mxPoint x="700" y="1090" as="targetPoint" />
          </mxGeometry>
        </mxCell>
        <mxCell id="1VWSUXiwOZT1shFSJKdf-225" value="" style="rounded=0;orthogonalLoop=1;jettySize=auto;html=1;endArrow=none;endFill=0;sketch=0;sourcePerimeterSpacing=0;targetPerimeterSpacing=0;exitX=1;exitY=0.25;exitDx=0;exitDy=0;dashed=1;startArrow=open;startFill=0;" edge="1" parent="WIyWlLk6GJQsqaUBKTNV-1" source="1VWSUXiwOZT1shFSJKdf-87">
          <mxGeometry relative="1" as="geometry">
            <mxPoint x="647" y="1135" as="sourcePoint" />
            <mxPoint x="700" y="1090" as="targetPoint" />
          </mxGeometry>
        </mxCell>
        <mxCell id="1VWSUXiwOZT1shFSJKdf-122" value="Inventory" style="swimlane;fontStyle=0;childLayout=stackLayout;horizontal=1;startSize=30;horizontalStack=0;resizeParent=1;resizeParentMax=0;resizeLast=0;collapsible=1;marginBottom=0;" vertex="1" collapsed="1" parent="WIyWlLk6GJQsqaUBKTNV-1">
          <mxGeometry x="727" y="1320" width="80" height="30" as="geometry">
            <mxRectangle x="710" y="930" width="140" height="90" as="alternateBounds" />
          </mxGeometry>
        </mxCell>
        <mxCell id="1VWSUXiwOZT1shFSJKdf-123" value="Item 2" style="text;strokeColor=none;fillColor=none;align=left;verticalAlign=middle;spacingLeft=4;spacingRight=4;overflow=hidden;points=[[0,0.5],[1,0.5]];portConstraint=eastwest;rotatable=0;" vertex="1" parent="1VWSUXiwOZT1shFSJKdf-122">
          <mxGeometry y="30" width="140" height="30" as="geometry" />
        </mxCell>
        <mxCell id="1VWSUXiwOZT1shFSJKdf-124" value="Item 3" style="text;strokeColor=none;fillColor=none;align=left;verticalAlign=middle;spacingLeft=4;spacingRight=4;overflow=hidden;points=[[0,0.5],[1,0.5]];portConstraint=eastwest;rotatable=0;" vertex="1" parent="1VWSUXiwOZT1shFSJKdf-122">
          <mxGeometry y="60" width="140" height="30" as="geometry" />
        </mxCell>
        <mxCell id="1VWSUXiwOZT1shFSJKdf-226" value="" style="rounded=0;orthogonalLoop=1;jettySize=auto;html=1;endArrow=none;endFill=0;entryX=0.5;entryY=0.5;endSize=6;strokeWidth=1;sketch=0;exitX=0;exitY=0.5;exitDx=0;exitDy=0;" edge="1" parent="WIyWlLk6GJQsqaUBKTNV-1" source="1VWSUXiwOZT1shFSJKdf-118" target="1VWSUXiwOZT1shFSJKdf-122">
          <mxGeometry relative="1" as="geometry">
            <mxPoint x="860" y="1335" as="sourcePoint" />
            <mxPoint x="700.4999999999998" y="1355" as="targetPoint" />
          </mxGeometry>
        </mxCell>
        <mxCell id="1VWSUXiwOZT1shFSJKdf-125" value="Objects" style="swimlane;fontStyle=0;childLayout=stackLayout;horizontal=1;startSize=30;horizontalStack=0;resizeParent=1;resizeParentMax=0;resizeLast=0;collapsible=1;marginBottom=0;" vertex="1" collapsed="1" parent="WIyWlLk6GJQsqaUBKTNV-1">
          <mxGeometry x="727" y="1400" width="80" height="30" as="geometry">
            <mxRectangle x="710" y="930" width="140" height="90" as="alternateBounds" />
          </mxGeometry>
        </mxCell>
        <mxCell id="1VWSUXiwOZT1shFSJKdf-126" value="Item 2" style="text;strokeColor=none;fillColor=none;align=left;verticalAlign=middle;spacingLeft=4;spacingRight=4;overflow=hidden;points=[[0,0.5],[1,0.5]];portConstraint=eastwest;rotatable=0;" vertex="1" parent="1VWSUXiwOZT1shFSJKdf-125">
          <mxGeometry y="30" width="140" height="30" as="geometry" />
        </mxCell>
        <mxCell id="1VWSUXiwOZT1shFSJKdf-127" value="Item 3" style="text;strokeColor=none;fillColor=none;align=left;verticalAlign=middle;spacingLeft=4;spacingRight=4;overflow=hidden;points=[[0,0.5],[1,0.5]];portConstraint=eastwest;rotatable=0;" vertex="1" parent="1VWSUXiwOZT1shFSJKdf-125">
          <mxGeometry y="60" width="140" height="30" as="geometry" />
        </mxCell>
        <mxCell id="1VWSUXiwOZT1shFSJKdf-228" value="" style="ellipse;whiteSpace=wrap;html=1;align=center;aspect=fixed;resizable=0;points=[];outlineConnect=0;sketch=0;" vertex="1" parent="WIyWlLk6GJQsqaUBKTNV-1">
          <mxGeometry x="695.5" y="1320" width="10" height="10" as="geometry" />
        </mxCell>
        <mxCell id="1VWSUXiwOZT1shFSJKdf-229" value="" style="rounded=0;orthogonalLoop=1;jettySize=auto;html=1;endArrow=none;endFill=0;endSize=6;strokeWidth=1;sketch=0;exitX=0;exitY=0.25;exitDx=0;exitDy=0;startArrow=none;" edge="1" parent="WIyWlLk6GJQsqaUBKTNV-1" source="1VWSUXiwOZT1shFSJKdf-122" target="1VWSUXiwOZT1shFSJKdf-228">
          <mxGeometry relative="1" as="geometry">
            <mxPoint x="737" y="1345" as="sourcePoint" />
            <mxPoint x="715.5000000000225" y="1345" as="targetPoint" />
          </mxGeometry>
        </mxCell>
        <mxCell id="1VWSUXiwOZT1shFSJKdf-230" value="" style="rounded=0;orthogonalLoop=1;jettySize=auto;html=1;endArrow=none;endFill=0;sketch=0;sourcePerimeterSpacing=0;targetPerimeterSpacing=0;exitX=1;exitY=0.25;exitDx=0;exitDy=0;dashed=1;startArrow=open;startFill=0;" edge="1" parent="WIyWlLk6GJQsqaUBKTNV-1" source="1VWSUXiwOZT1shFSJKdf-116" target="1VWSUXiwOZT1shFSJKdf-228">
          <mxGeometry relative="1" as="geometry">
            <mxPoint x="652" y="1375" as="sourcePoint" />
            <mxPoint x="706.0467053380553" y="1347.2733602120416" as="targetPoint" />
          </mxGeometry>
        </mxCell>
      </root>
    </mxGraphModel>
  </diagram>
</mxfile>
